<?xml version="1.0" encoding="utf-8"?>
<!-- Generator: Adobe Illustrator 22.0.1, SVG Export Plug-In . SVG Version: 6.00 Build 0)  -->
<svg version="1.1" xmlns="http://www.w3.org/2000/svg" xmlns:xlink="http://www.w3.org/1999/xlink" x="0px" y="0px"
	 viewBox="0 0 696.3 906.5" style="enable-background:new 0 0 696.3 906.5;" xml:space="preserve">
<style type="text/css">
	.st0{fill:none;}
	.st1{display:none;}
	.st2{display:inline;}
	.st3{font-family:'Arial-Black';}
	.st4{font-size:20px;}
	.st5{font-family:'ArialMT';}
	.st6{fill:none;stroke:#E6007E;stroke-width:0.25;stroke-miterlimit:10;}
</style>
<g id="Tekst_laag">
	<rect x="224" y="720.1" class="st0" width="111.7" height="119.4"/>
	<text transform="matrix(1 0 0 1 239.863 734.3762)" class="st1"><tspan x="0" y="0" class="st2 st3 st4">0:00:00</tspan><tspan x="0" y="30" class="st2 st3 st4">0:00:00</tspan><tspan x="0" y="60" class="st2 st3 st4">0:00:00</tspan><tspan x="0" y="90" class="st2 st3 st4">0:00:00</tspan></text>
	<rect x="127.1" y="720.1" class="st0" width="72.4" height="112.2"/>
	<text transform="matrix(1 0 0 1 127.0508 734.3762)" class="st1"><tspan x="0" y="0" class="st2 st5 st4">5 km</tspan><tspan x="0" y="30" class="st2 st5 st4">10 km</tspan><tspan x="0" y="60" class="st2 st5 st4">15 km</tspan><tspan x="0" y="90" class="st2 st5 st4">20 km</tspan></text>
</g>
<g id="Thrucut">
	<path class="st6" d="M455,512.6L455,512.6c0-3.9,2.6-7.1,5.8-7.1h73.5c3.2,0,5.8,3.2,5.8,7.1l0,0c0,3.9-2.6,7.1-5.8,7.1h-73.5
		C457.6,519.7,455,516.5,455,512.6z"/>
	<path class="st6" d="M455,541.5L455,541.5c0-3.9,2.6-7.1,5.8-7.1h73.5c3.2,0,5.8,3.2,5.8,7.1l0,0c0,3.9-2.6,7.1-5.8,7.1h-73.5
		C457.6,548.6,455,545.4,455,541.5z"/>
	<path class="st6" d="M554.2,27.3h113.4v850.4 M667.6,877.7V27.3H554.2v0c0,3.3-2.7,6-6,6H446.9c-3.3,0-6-2.7-6-6v0H29.3v850.4
		H667.6z"/>
	<path class="st6" d="M455,217.3L455,217.3c0-3.9,2.6-7.1,5.8-7.1h73.5c3.2,0,5.8,3.2,5.8,7.1v0c0,3.9-2.6,7.1-5.8,7.1h-73.5
		C457.6,224.3,455,221.2,455,217.3z"/>
	<path class="st6" d="M455,246.2L455,246.2c0-3.9,2.6-7.1,5.8-7.1h73.5c3.2,0,5.8,3.2,5.8,7.1v0c0,3.9-2.6,7.1-5.8,7.1h-73.5
		C457.6,253.3,455,250.1,455,246.2z"/>
</g>
</svg>
