<?xml version="1.0" encoding="utf-8"?>
<!-- Generator: Adobe Illustrator 22.0.1, SVG Export Plug-In . SVG Version: 6.00 Build 0)  -->
<svg version="1.1" xmlns="http://www.w3.org/2000/svg" xmlns:xlink="http://www.w3.org/1999/xlink" x="0px" y="0px"
	 viewBox="0 0 696.3 906.5" style="enable-background:new 0 0 696.3 906.5;" xml:space="preserve">
<style type="text/css">
	.st0{fill:none;}
	.st1{display:none;}
	.st2{display:inline;}
	.st3{font-family:'Arial-Black';}
	.st4{font-size:20px;}
	.st5{font-family:'ArialMT';}
	.st6{font-size:46px;}
	.st7{font-size:24px;}
	.st8{fill:none;stroke:#E6007E;stroke-width:0.25;stroke-miterlimit:10;}
</style>
<g id="Tekst_laag">
	<rect x="224" y="720.1" class="st0" width="111.7" height="119.4"/>
	<text transform="matrix(1 0 0 1 239.863 734.3762)" class="st1"><tspan x="0" y="0" class="st2 st3 st4">0:00:00</tspan><tspan x="0" y="30" class="st2 st3 st4">0:00:00</tspan><tspan x="0" y="60" class="st2 st3 st4">0:00:00</tspan><tspan x="0" y="90" class="st2 st3 st4">0:00:00</tspan></text>
	<rect x="127.1" y="720.1" class="st0" width="72.4" height="112.2"/>
	<text transform="matrix(1 0 0 1 127.0508 734.3762)" class="st1"><tspan x="0" y="0" class="st2 st5 st4">5 km</tspan><tspan x="0" y="30" class="st2 st5 st4">10 km</tspan><tspan x="0" y="60" class="st2 st5 st4">15 km</tspan><tspan x="0" y="90" class="st2 st5 st4">20 km</tspan></text>
	<rect x="97" y="87.8" class="st0" width="268.8" height="75"/>
	<text transform="matrix(1 0 0 1 107.4564 120.7204)"><tspan x="0" y="0" class="st3 st6">UTRECHT</tspan><tspan x="58.9" y="24" class="st3 st4">MARATHON</tspan></text>
	<g>
		<path d="M127,704.9l5.5-14.3h2l5.9,14.3h-2.2l-1.7-4.3h-6l-1.6,4.3H127z M131.2,699.1h4.9l-1.5-4c-0.5-1.2-0.8-2.2-1-3
			c-0.2,0.9-0.4,1.8-0.8,2.7L131.2,699.1z"/>
		<path d="M142.1,704.9v-9h-1.6v-1.4h1.6v-1.1c0-0.7,0.1-1.2,0.2-1.6c0.2-0.5,0.5-0.8,0.9-1.1s1-0.4,1.8-0.4c0.5,0,1,0.1,1.6,0.2
			l-0.3,1.5c-0.4-0.1-0.7-0.1-1-0.1c-0.5,0-0.9,0.1-1.1,0.3c-0.2,0.2-0.3,0.7-0.3,1.3v1h2v1.4h-2v9H142.1z"/>
		<path d="M146.6,701.8l1.7-0.3c0.1,0.7,0.4,1.2,0.8,1.6s1.1,0.6,1.9,0.6c0.8,0,1.4-0.2,1.8-0.5c0.4-0.3,0.6-0.7,0.6-1.2
			c0-0.4-0.2-0.7-0.5-0.9c-0.2-0.2-0.8-0.4-1.8-0.6c-1.3-0.3-2.2-0.6-2.7-0.8c-0.5-0.2-0.9-0.6-1.1-1s-0.4-0.9-0.4-1.4
			c0-0.5,0.1-0.9,0.3-1.3c0.2-0.4,0.5-0.7,0.9-1c0.3-0.2,0.6-0.4,1.1-0.5c0.5-0.1,1-0.2,1.5-0.2c0.8,0,1.5,0.1,2.1,0.4
			s1.1,0.6,1.4,1s0.5,0.9,0.6,1.6l-1.7,0.2c-0.1-0.5-0.3-1-0.7-1.3c-0.4-0.3-0.9-0.4-1.6-0.4c-0.8,0-1.4,0.1-1.7,0.4
			c-0.3,0.3-0.5,0.6-0.5,0.9c0,0.2,0.1,0.4,0.2,0.6c0.1,0.2,0.4,0.3,0.7,0.5c0.2,0.1,0.7,0.2,1.6,0.4c1.2,0.3,2.1,0.6,2.6,0.8
			c0.5,0.2,0.9,0.5,1.2,0.9c0.3,0.4,0.4,0.9,0.4,1.5c0,0.6-0.2,1.1-0.5,1.7s-0.8,0.9-1.5,1.2s-1.4,0.4-2.2,0.4
			c-1.3,0-2.4-0.3-3.1-0.8C147.2,703.8,146.8,702.9,146.6,701.8z"/>
		<path d="M161.1,703.4l0.3,1.6c-0.5,0.1-0.9,0.2-1.3,0.2c-0.6,0-1.1-0.1-1.5-0.3c-0.4-0.2-0.6-0.5-0.7-0.8c-0.1-0.3-0.2-1-0.2-2.1
			v-6h-1.3v-1.4h1.3V692l1.7-1.1v3.6h1.8v1.4h-1.8v6.1c0,0.5,0,0.8,0.1,1c0.1,0.1,0.2,0.3,0.3,0.3c0.1,0.1,0.3,0.1,0.6,0.1
			C160.5,703.4,160.8,703.4,161.1,703.4z"/>
		<path d="M169.6,703.7c-0.7,0.6-1.3,0.9-1.9,1.2c-0.6,0.2-1.2,0.3-1.9,0.3c-1.1,0-2-0.3-2.6-0.8s-0.9-1.3-0.9-2.1
			c0-0.5,0.1-1,0.3-1.4s0.5-0.8,0.9-1s0.8-0.4,1.3-0.6c0.3-0.1,0.9-0.2,1.6-0.3c1.4-0.2,2.5-0.4,3.1-0.6c0-0.2,0-0.4,0-0.5
			c0-0.7-0.2-1.2-0.5-1.5c-0.4-0.4-1.1-0.6-2-0.6c-0.8,0-1.4,0.1-1.8,0.4c-0.4,0.3-0.7,0.8-0.9,1.5l-1.7-0.2
			c0.2-0.7,0.4-1.3,0.8-1.8c0.4-0.5,0.9-0.8,1.6-1s1.5-0.4,2.4-0.4c0.9,0,1.6,0.1,2.2,0.3c0.6,0.2,1,0.5,1.2,0.8
			c0.3,0.3,0.4,0.7,0.5,1.2c0.1,0.3,0.1,0.8,0.1,1.6v2.3c0,1.6,0,2.7,0.1,3.1c0.1,0.4,0.2,0.8,0.4,1.2h-1.8
			C169.8,704.6,169.6,704.2,169.6,703.7z M169.4,699.7c-0.6,0.3-1.6,0.5-2.9,0.7c-0.7,0.1-1.2,0.2-1.5,0.4c-0.3,0.1-0.5,0.3-0.7,0.6
			c-0.2,0.3-0.2,0.5-0.2,0.8c0,0.5,0.2,0.9,0.5,1.2s0.9,0.5,1.6,0.5c0.7,0,1.3-0.1,1.8-0.4c0.5-0.3,0.9-0.7,1.2-1.2
			c0.2-0.4,0.3-1,0.3-1.8V699.7z"/>
		<path d="M173.9,704.9v-10.4h1.6v1.5c0.8-1.1,1.9-1.7,3.3-1.7c0.6,0,1.2,0.1,1.7,0.3s0.9,0.5,1.2,0.9c0.3,0.4,0.4,0.8,0.5,1.3
			c0.1,0.3,0.1,0.9,0.1,1.7v6.4h-1.8v-6.3c0-0.7-0.1-1.3-0.2-1.6c-0.1-0.4-0.4-0.6-0.7-0.8c-0.3-0.2-0.8-0.3-1.2-0.3
			c-0.7,0-1.4,0.2-1.9,0.7c-0.5,0.5-0.8,1.4-0.8,2.7v5.7H173.9z"/>
		<path d="M191.8,704.9v-1.3c-0.7,1-1.6,1.5-2.9,1.5c-0.8,0-1.6-0.2-2.3-0.7c-0.7-0.5-1.2-1.1-1.6-1.9c-0.4-0.8-0.6-1.8-0.6-2.8
			c0-1,0.2-2,0.5-2.8c0.3-0.8,0.9-1.5,1.6-1.9s1.5-0.7,2.3-0.7c0.6,0,1.2,0.1,1.7,0.4s0.9,0.6,1.2,1v-5.1h1.7v14.3H191.8z
			 M186.2,699.8c0,1.3,0.3,2.3,0.8,3c0.6,0.7,1.2,1,2,1c0.8,0,1.4-0.3,2-0.9c0.5-0.6,0.8-1.6,0.8-2.9c0-1.4-0.3-2.5-0.8-3.1
			s-1.2-1-2-1c-0.8,0-1.4,0.3-2,1C186.5,697.4,186.2,698.4,186.2,699.8z"/>
		<path d="M132.2,734.9v-12.6h-4.7v-1.7h11.3v1.7h-4.7v12.6H132.2z"/>
		<path d="M139.9,722.6v-2h1.8v2H139.9z M139.9,734.9v-10.4h1.8v10.4H139.9z"/>
		<path d="M142.1,739l0.3-1.5c0.4,0.1,0.6,0.1,0.8,0.1c0.4,0,0.6-0.1,0.8-0.4c0.2-0.2,0.3-0.8,0.3-1.8v-10.9h1.8v10.9
			c0,1.3-0.2,2.2-0.5,2.7c-0.4,0.7-1.1,1-2.1,1C143,739.2,142.5,739.1,142.1,739z M144.3,722.7v-2h1.8v2H144.3z"/>
		<path d="M155.5,734.9v-1.3c-0.7,1-1.6,1.5-2.9,1.5c-0.8,0-1.6-0.2-2.3-0.7c-0.7-0.5-1.2-1.1-1.6-1.9c-0.4-0.8-0.6-1.8-0.6-2.8
			c0-1,0.2-2,0.5-2.8c0.3-0.8,0.9-1.5,1.6-1.9s1.5-0.7,2.3-0.7c0.6,0,1.2,0.1,1.7,0.4s0.9,0.6,1.2,1v-5.1h1.7v14.3H155.5z
			 M149.9,729.8c0,1.3,0.3,2.3,0.8,3c0.6,0.7,1.2,1,2,1c0.8,0,1.4-0.3,2-0.9c0.5-0.6,0.8-1.6,0.8-2.9c0-1.4-0.3-2.5-0.8-3.1
			s-1.2-1-2-1c-0.8,0-1.4,0.3-2,1C150.2,727.4,149.9,728.4,149.9,729.8z"/>
		<path d="M132.2,764.9v-12.6h-4.7v-1.7h11.3v1.7h-4.7v12.6H132.2z"/>
		<path d="M145.5,761.6l1.8,0.2c-0.3,1.1-0.8,1.9-1.6,2.5s-1.8,0.9-3,0.9c-1.5,0-2.7-0.5-3.6-1.4c-0.9-0.9-1.3-2.2-1.3-3.9
			c0-1.7,0.4-3.1,1.3-4.1c0.9-1,2.1-1.4,3.5-1.4c1.4,0,2.5,0.5,3.4,1.4c0.9,0.9,1.3,2.3,1.3,4c0,0.1,0,0.3,0,0.5h-7.7
			c0.1,1.1,0.4,2,1,2.6s1.3,0.9,2.2,0.9c0.6,0,1.2-0.2,1.7-0.5C144.8,762.9,145.2,762.3,145.5,761.6z M139.7,758.8h5.8
			c-0.1-0.9-0.3-1.5-0.7-2c-0.6-0.7-1.3-1-2.2-1c-0.8,0-1.5,0.3-2,0.8C140.1,757.1,139.8,757.9,139.7,758.8z"/>
		<path d="M149.5,764.9v-10.4h1.6v1.5c0.3-0.5,0.8-0.9,1.3-1.2c0.5-0.3,1.2-0.5,1.8-0.5c0.8,0,1.4,0.2,1.9,0.5
			c0.5,0.3,0.8,0.8,1,1.3c0.8-1.2,1.9-1.8,3.2-1.8c1,0,1.8,0.3,2.4,0.9c0.6,0.6,0.8,1.4,0.8,2.6v7.1h-1.7v-6.5
			c0-0.7-0.1-1.2-0.2-1.5c-0.1-0.3-0.3-0.6-0.6-0.7c-0.3-0.2-0.7-0.3-1.1-0.3c-0.7,0-1.3,0.2-1.8,0.7c-0.5,0.5-0.7,1.3-0.7,2.3v6
			h-1.8v-6.7c0-0.8-0.1-1.4-0.4-1.8s-0.8-0.6-1.4-0.6c-0.5,0-1,0.1-1.4,0.4c-0.4,0.3-0.7,0.6-0.9,1.1c-0.2,0.5-0.3,1.2-0.3,2.2v5.4
			H149.5z"/>
		<path d="M166.2,768.9v-14.3h1.6v1.3c0.4-0.5,0.8-0.9,1.3-1.2s1.1-0.4,1.7-0.4c0.9,0,1.7,0.2,2.3,0.7c0.7,0.5,1.2,1.1,1.5,1.9
			s0.5,1.7,0.5,2.7c0,1.1-0.2,2-0.6,2.9s-0.9,1.5-1.7,2c-0.7,0.5-1.5,0.7-2.3,0.7c-0.6,0-1.1-0.1-1.6-0.4c-0.5-0.2-0.8-0.6-1.1-0.9
			v5H166.2z M167.7,759.8c0,1.3,0.3,2.3,0.8,3c0.5,0.6,1.2,1,2,1c0.8,0,1.5-0.3,2-1c0.6-0.7,0.8-1.7,0.8-3.1c0-1.3-0.3-2.3-0.8-3
			c-0.5-0.7-1.2-1-1.9-1c-0.7,0-1.4,0.4-2,1C168,757.5,167.7,758.5,167.7,759.8z"/>
		<path d="M176.6,759.8c0-1.9,0.5-3.3,1.6-4.3c0.9-0.8,2-1.2,3.3-1.2c1.4,0,2.6,0.5,3.5,1.4c0.9,0.9,1.4,2.2,1.4,3.9
			c0,1.3-0.2,2.4-0.6,3.1c-0.4,0.8-1,1.4-1.7,1.8c-0.8,0.4-1.6,0.6-2.5,0.6c-1.5,0-2.6-0.5-3.5-1.4
			C177.1,762.9,176.6,761.5,176.6,759.8z M178.4,759.8c0,1.3,0.3,2.3,0.9,3c0.6,0.7,1.3,1,2.2,1c0.9,0,1.6-0.3,2.2-1s0.9-1.7,0.9-3
			c0-1.3-0.3-2.3-0.9-2.9c-0.6-0.7-1.3-1-2.2-1c-0.9,0-1.6,0.3-2.2,1C178.7,757.4,178.4,758.4,178.4,759.8z"/>
	</g>
	<rect x="224" y="690.6" class="st0" width="111.7" height="81.7"/>
	<text transform="matrix(1 0 0 1 227.8591 707.8073)"><tspan x="0" y="0" class="st3 st7">42,2 km</tspan><tspan x="4" y="30" class="st3 st7">4:39:18</tspan><tspan x="24" y="58.8" class="st3 st7">6:34</tspan></text>
	<rect x="97" y="168.8" class="st0" width="268.8" height="23.6"/>
	<text transform="matrix(1 0 0 1 176.345 183.1047)" class="st5 st4">19 mei 2024</text>
</g>
<g id="Thrucut">
	<path class="st8" d="M455,512.6L455,512.6c0-3.9,2.6-7.1,5.8-7.1h73.5c3.2,0,5.8,3.2,5.8,7.1l0,0c0,3.9-2.6,7.1-5.8,7.1h-73.5
		C457.6,519.7,455,516.5,455,512.6z"/>
	<path class="st8" d="M455,541.5L455,541.5c0-3.9,2.6-7.1,5.8-7.1h73.5c3.2,0,5.8,3.2,5.8,7.1l0,0c0,3.9-2.6,7.1-5.8,7.1h-73.5
		C457.6,548.6,455,545.4,455,541.5z"/>
	<path class="st8" d="M554.2,27.3h113.4v850.4 M667.6,877.7V27.3H554.2v0c0,3.3-2.7,6-6,6H446.9c-3.3,0-6-2.7-6-6v0H29.3v850.4
		H667.6z"/>
	<path class="st8" d="M455,217.3L455,217.3c0-3.9,2.6-7.1,5.8-7.1h73.5c3.2,0,5.8,3.2,5.8,7.1v0c0,3.9-2.6,7.1-5.8,7.1h-73.5
		C457.6,224.3,455,221.2,455,217.3z"/>
	<path class="st8" d="M455,246.2L455,246.2c0-3.9,2.6-7.1,5.8-7.1h73.5c3.2,0,5.8,3.2,5.8,7.1v0c0,3.9-2.6,7.1-5.8,7.1h-73.5
		C457.6,253.3,455,250.1,455,246.2z"/>
</g>
</svg>
